<?xml version="1.0" encoding="UTF-8" standalone="no"?>
<!-- Created with Inkscape (http://www.inkscape.org/) -->

<svg
   xmlns:dc="http://purl.org/dc/elements/1.1/"
   xmlns:cc="http://creativecommons.org/ns#"
   xmlns:rdf="http://www.w3.org/1999/02/22-rdf-syntax-ns#"
   xmlns:svg="http://www.w3.org/2000/svg"
   xmlns="http://www.w3.org/2000/svg"
   xmlns:xlink="http://www.w3.org/1999/xlink"
   xmlns:sodipodi="http://sodipodi.sourceforge.net/DTD/sodipodi-0.dtd"
   xmlns:inkscape="http://www.inkscape.org/namespaces/inkscape"
   version="1.1"
   width="24"
   height="24"
   id="svg4031"
   inkscape:version="0.91 r13725"
   sodipodi:docname="chat.svg">
  <sodipodi:namedview
     pagecolor="#ffffff"
     bordercolor="#666666"
     borderopacity="1"
     objecttolerance="10"
     gridtolerance="10"
     guidetolerance="10"
     inkscape:pageopacity="0"
     inkscape:pageshadow="2"
     inkscape:window-width="1920"
     inkscape:window-height="1149"
     id="namedview48"
     showgrid="false"
     inkscape:zoom="11.313708"
     inkscape:cx="-16.186746"
     inkscape:cy="29.047592"
     inkscape:window-x="0"
     inkscape:window-y="27"
     inkscape:window-maximized="1"
     inkscape:current-layer="svg4031">
    <inkscape:grid
       type="xygrid"
       id="grid3068" />
  </sodipodi:namedview>
  <defs
     id="defs4033">
    <linearGradient
       id="linearGradient4168">
      <stop
         id="stop4170"
         style="stop-color:#f8b17e;stop-opacity:1"
         offset="0" />
      <stop
         id="stop4172"
         style="stop-color:#e35d4f;stop-opacity:1"
         offset="0.23208089" />
      <stop
         id="stop4174"
         style="stop-color:#c6262e;stop-opacity:1"
         offset="0.5908742" />
      <stop
         id="stop4176"
         style="stop-color:#690b54;stop-opacity:1"
         offset="1" />
    </linearGradient>
    <linearGradient
       id="linearGradient3957">
      <stop
         id="stop3959"
         style="stop-color:#ffffff;stop-opacity:1"
         offset="0" />
      <stop
         id="stop3961"
         style="stop-color:#c1c1c1;stop-opacity:1"
         offset="1" />
    </linearGradient>
    <linearGradient
       id="linearGradient4011">
      <stop
         id="stop4013"
         style="stop-color:#ffffff;stop-opacity:1"
         offset="0" />
      <stop
         id="stop4015"
         style="stop-color:#ffffff;stop-opacity:0.23529412"
         offset="0.507761" />
      <stop
         id="stop4017"
         style="stop-color:#ffffff;stop-opacity:0.15686275"
         offset="0.83456558" />
      <stop
         id="stop4019"
         style="stop-color:#ffffff;stop-opacity:0.39215687"
         offset="1" />
    </linearGradient>
    <linearGradient
       id="linearGradient2867-449-88-871-390-598-476-591-434-148-57-177-3-8">
      <stop
         id="stop3750-8-9"
         style="stop-color:#90dbec;stop-opacity:1"
         offset="0" />
      <stop
         id="stop3752-3-2"
         style="stop-color:#42baea;stop-opacity:1"
         offset="0.26238" />
      <stop
         id="stop3754-7-2"
         style="stop-color:#3689e6;stop-opacity:1"
         offset="0.704952" />
      <stop
         id="stop3756-9-3"
         style="stop-color:#2b63a0;stop-opacity:1"
         offset="1" />
    </linearGradient>
    <linearGradient
       id="linearGradient3820-7-2-1">
      <stop
         id="stop3822-2-6-3"
         style="stop-color:#3d3d3d;stop-opacity:1"
         offset="0" />
      <stop
         id="stop3864-8-7-7"
         style="stop-color:#686868;stop-opacity:0.49803922"
         offset="0.5" />
      <stop
         id="stop3824-1-2-5"
         style="stop-color:#686868;stop-opacity:0"
         offset="1" />
    </linearGradient>
    <linearGradient
       x1="71.204407"
       y1="6.2375584"
       x2="71.204407"
       y2="44.340794"
       id="linearGradient3012"
       xlink:href="#linearGradient4011"
       gradientUnits="userSpaceOnUse"
       gradientTransform="matrix(0.48648646,0,0,0.48648646,-22.897385,-0.3359535)" />
    <radialGradient
       cx="3.9722471"
       cy="8.4497671"
       r="19.99999"
       fx="3.9722471"
       fy="8.4497671"
       id="radialGradient3015"
       xlink:href="#linearGradient2867-449-88-871-390-598-476-591-434-148-57-177-3-8"
       gradientUnits="userSpaceOnUse"
       gradientTransform="matrix(0,2.4988347,-2.6434689,-6.8014435e-8,46.336814,-12.180468)" />
    <radialGradient
       cx="99.157013"
       cy="186.17059"
       r="62.769119"
       fx="99.157013"
       fy="186.17059"
       id="radialGradient3018"
       xlink:href="#linearGradient3820-7-2-1"
       gradientUnits="userSpaceOnUse"
       gradientTransform="matrix(0.27083381,0,0,0.08762273,-2.855072,25.187228)" />
    <linearGradient
       x1="27.92535"
       y1="15.149301"
       x2="33.447899"
       y2="22.986004"
       id="linearGradient3951"
       xlink:href="#linearGradient4168"
       gradientUnits="userSpaceOnUse" />
    <linearGradient
       x1="24"
       y1="22"
       x2="24"
       y2="26"
       id="linearGradient3963"
       xlink:href="#linearGradient3957"
       gradientUnits="userSpaceOnUse" />
    <linearGradient
       x1="21.013996"
       y1="25.433903"
       x2="22.805599"
       y2="27.343702"
       id="linearGradient3963-7"
       xlink:href="#linearGradient3957-2"
       gradientUnits="userSpaceOnUse" />
    <linearGradient
       id="linearGradient3957-2">
      <stop
         id="stop3959-62"
         style="stop-color:#ffffff;stop-opacity:1"
         offset="0" />
      <stop
         id="stop3961-5"
         style="stop-color:#c1c1c1;stop-opacity:1"
         offset="1" />
    </linearGradient>
    <linearGradient
       inkscape:collect="always"
       xlink:href="#linearGradient27416-1-2-0-1"
       id="linearGradient2995"
       gradientUnits="userSpaceOnUse"
       gradientTransform="matrix(2.1155865,0,0,3.8509774,177.06178,-159.44552)"
       x1="30.271185"
       y1="10.028973"
       x2="30.271185"
       y2="55.052982" />
    <linearGradient
       id="linearGradient27416-1-2-0-1">
      <stop
         id="stop27420-2-0-8-7"
         style="stop-color:#55c1ec;stop-opacity:1"
         offset="0" />
      <stop
         id="stop27422-3-5-3-3"
         style="stop-color:#3689e6;stop-opacity:1"
         offset="1" />
    </linearGradient>
    <linearGradient
       inkscape:collect="always"
       xlink:href="#linearGradient27416-1-2-0-1"
       id="linearGradient3052"
       gradientUnits="userSpaceOnUse"
       gradientTransform="matrix(2.1155865,0,0,3.8509774,61.40076,-219.77227)"
       x1="30.271185"
       y1="10.028973"
       x2="30.271185"
       y2="55.052982" />
    <linearGradient
       inkscape:collect="always"
       xlink:href="#linearGradient27416-1-2-0-1"
       id="linearGradient3060"
       gradientUnits="userSpaceOnUse"
       gradientTransform="matrix(2.1155865,0,0,3.8509774,61.40076,-219.77227)"
       x1="30.271185"
       y1="10.028973"
       x2="30.271185"
       y2="55.052982" />
    <linearGradient
       inkscape:collect="always"
       xlink:href="#linearGradient27416-1-2-0-1"
       id="linearGradient3066"
       gradientUnits="userSpaceOnUse"
       gradientTransform="matrix(0.33056038,0,0,0.60171517,29.665902,-22.911946)"
       x1="30.271185"
       y1="10.028973"
       x2="30.271185"
       y2="55.052982" />
  </defs>
  <metadata
     id="metadata4036">
    <rdf:RDF>
      <cc:Work
         rdf:about="">
        <dc:format>image/svg+xml</dc:format>
        <dc:type
           rdf:resource="http://purl.org/dc/dcmitype/StillImage" />
        <dc:title></dc:title>
      </cc:Work>
    </rdf:RDF>
  </metadata>
  <path
     inkscape:connector-curvature="0"
     style="color:#000000;display:inline;overflow:visible;visibility:visible;fill:url(#linearGradient3066);fill-opacity:1;fill-rule:nonzero;stroke:none;stroke-width:1.54645538;marker:none;enable-background:accumulate"
     id="path3029"
     d="m 22,12.001414 a 10,10 0 0 1 -20,0 10,10 0 1 1 20,0 z" />
  <path
     inkscape:connector-curvature="0"
     style="color:#000000;display:inline;overflow:visible;visibility:visible;opacity:0.15;fill:#000000;fill-opacity:1;fill-rule:nonzero;stroke:none;stroke-width:2;marker:none;enable-background:accumulate"
     id="path4177"
     d="m 13.999931,6.5719802 c -1.968728,0 -3.564696,1.5345852 -3.564696,3.4275919 0,1.8930059 1.595968,3.4275909 3.564696,3.4275909 1.968727,0 3.564696,-1.534585 3.564696,-3.4275909 0,-1.8930067 -1.595969,-3.4275919 -3.564696,-3.4275919 z m -1.306769,7.4293058 c -1.604716,0 -2.9927494,0.944083 -3.6932311,2.330762 C 10.25066,17.666119 12.026961,18.5 13.999931,18.5 c 1.97297,0 3.749271,-0.833881 5,-2.167952 -0.700483,-1.386679 -2.088515,-2.330762 -3.693231,-2.330762 l -2.613538,0 z" />
  <path
     d="m 14.043411,7.2222187 c -1.694953,0 -3.068984,1.3866026 -3.068984,3.0970633 0,1.710461 1.374031,3.097064 3.068984,3.097064 1.694953,0 3.068984,-1.386603 3.068984,-3.097064 0,-1.7104607 -1.374031,-3.0970633 -3.068984,-3.0970633 z m -1.125049,6.7128853 c -1.381561,0 -2.576572,0.853044 -3.1796441,2.106004 C 10.815519,17.246531 12.344804,18 14.043411,18 c 1.698606,0 3.227892,-0.753469 4.304693,-1.958892 -0.603072,-1.25296 -1.798083,-2.106004 -3.179645,-2.106004 l -2.250097,0 z"
     id="path4179"
     style="color:#000000;display:inline;overflow:visible;visibility:visible;opacity:0.07000002;fill:#000000;fill-opacity:1;fill-rule:nonzero;stroke:#000000;stroke-width:2;stroke-miterlimit:4;stroke-dasharray:none;stroke-opacity:1;marker:none;enable-background:accumulate"
     inkscape:connector-curvature="0" />
  <path
     d="m 13.999931,6.0719802 c -1.968728,0 -3.564696,1.5345852 -3.564696,3.4275919 0,1.8930059 1.595968,3.4275909 3.564696,3.4275909 1.968727,0 3.564696,-1.534585 3.564696,-3.4275909 0,-1.8930067 -1.595969,-3.4275919 -3.564696,-3.4275919 z m -1.306769,7.4293058 c -1.604716,0 -2.9927494,0.944083 -3.6932311,2.330762 C 10.25066,17.166119 12.026961,18 13.999931,18 c 1.97297,0 3.749271,-0.833881 5,-2.167952 -0.700483,-1.386679 -2.088515,-2.330762 -3.693231,-2.330762 l -2.613538,0 z"
     id="path4181"
     style="color:#000000;display:inline;overflow:visible;visibility:visible;fill:#c4c4c4;fill-opacity:1;fill-rule:nonzero;stroke:none;stroke-width:2;marker:none;enable-background:accumulate"
     inkscape:connector-curvature="0" />
  <path
     d="m 11,7.5719802 c -1.9687277,0 -3.564696,1.5345849 -3.564696,3.4275918 0,1.893006 1.5959683,3.427591 3.564696,3.427591 1.968727,0 3.564696,-1.534585 3.564696,-3.427591 C 14.564696,9.1065651 12.968727,7.5719802 11,7.5719802 Z M 9.6932306,15.001286 c -1.6047158,0 -2.9927491,0.944083 -3.6932308,2.330762 C 7.250729,18.666119 9.0270298,19.5 11,19.5 c 1.97297,0 3.749271,-0.833881 5,-2.167952 -0.700483,-1.386679 -2.088515,-2.330762 -3.693231,-2.330762 l -2.6135384,0 z"
     id="path3070"
     style="color:#000000;display:inline;overflow:visible;visibility:visible;opacity:0.15;fill:#000000;fill-opacity:1;fill-rule:nonzero;stroke:none;stroke-width:2;marker:none;enable-background:accumulate"
     inkscape:connector-curvature="0" />
  <path
     inkscape:connector-curvature="0"
     style="color:#000000;display:inline;overflow:visible;visibility:visible;opacity:0.07000002;fill:#000000;fill-opacity:1;fill-rule:nonzero;stroke:#000000;stroke-width:2;stroke-miterlimit:4;stroke-dasharray:none;stroke-opacity:1;marker:none;enable-background:accumulate"
     id="path3840"
     d="m 11.04348,8.2222187 c -1.6949536,0 -3.0689845,1.3866024 -3.0689845,3.0970633 0,1.710461 1.3740309,3.097064 3.0689845,3.097064 1.694953,0 3.068984,-1.386603 3.068984,-3.097064 0,-1.7104609 -1.374031,-3.0970633 -3.068984,-3.0970633 z M 9.9184312,14.935104 c -1.3815615,0 -2.5765724,0.853044 -3.1796444,2.106004 C 7.8155883,18.246531 9.3448731,19 11.04348,19 c 1.698606,0 3.227892,-0.753469 4.304693,-1.958892 -0.603072,-1.25296 -1.798083,-2.106004 -3.179645,-2.106004 l -2.2500968,0 z" />
  <path
     inkscape:connector-curvature="0"
     style="color:#000000;display:inline;overflow:visible;visibility:visible;fill:#ffffff;fill-opacity:1;fill-rule:nonzero;stroke:none;stroke-width:2;marker:none;enable-background:accumulate"
     id="rect3049"
     d="m 11,7.0719802 c -1.9687277,0 -3.564696,1.5345852 -3.564696,3.4275918 0,1.893006 1.5959683,3.427591 3.564696,3.427591 1.968727,0 3.564696,-1.534585 3.564696,-3.427591 C 14.564696,8.6065654 12.968727,7.0719802 11,7.0719802 Z M 9.6932306,14.501286 c -1.6047158,0 -2.9927491,0.944083 -3.6932308,2.330762 C 7.250729,18.166119 9.0270298,19 11,19 c 1.97297,0 3.749271,-0.833881 5,-2.167952 -0.700483,-1.386679 -2.088515,-2.330762 -3.693231,-2.330762 l -2.6135384,0 z" />
  <path
     d="M 21,11.999682 C 21,16.970404 16.970266,21 12.000114,21 7.0295065,21 2.9999996,16.970359 2.9999996,11.999682 c 0,-4.9704938 4.0295069,-8.9996812 9.0001144,-8.9996812 C 16.970266,3.0000008 21,7.0291882 21,11.999682 l 0,0 z"
     id="path8655"
     style="color:#000000;display:inline;overflow:visible;visibility:visible;opacity:0.5;fill:none;stroke:url(#linearGradient3012);stroke-width:1;stroke-linecap:round;stroke-linejoin:round;stroke-miterlimit:4;stroke-dasharray:none;stroke-dashoffset:0;stroke-opacity:1;marker:none;enable-background:accumulate"
     inkscape:connector-curvature="0" />
  <path
     d="M 12.000002,1.9999999 C 6.4823465,1.9999999 2,6.4823442 2,11.999999 2,17.517655 6.4823465,22.000001 12.000002,22 17.517655,22 22.000006,17.517655 22,11.999999 22,6.4823442 17.517655,1.9999999 12.000002,1.9999999 Z"
     id="path2555-6"
     style="color:#000000;display:inline;overflow:visible;visibility:visible;opacity:0.5;fill:#000000;fill-opacity:0;fill-rule:nonzero;stroke:#003651;stroke-width:0.99999994;stroke-linecap:round;stroke-linejoin:round;stroke-miterlimit:4;stroke-dasharray:none;stroke-dashoffset:0;stroke-opacity:1;marker:none;enable-background:accumulate"
     inkscape:connector-curvature="0" />
</svg>
