<?xml version="1.0" encoding="UTF-8" standalone="no"?>
<!-- Created with Inkscape (http://www.inkscape.org/) -->

<svg
   xmlns:dc="http://purl.org/dc/elements/1.1/"
   xmlns:cc="http://creativecommons.org/ns#"
   xmlns:rdf="http://www.w3.org/1999/02/22-rdf-syntax-ns#"
   xmlns:svg="http://www.w3.org/2000/svg"
   xmlns="http://www.w3.org/2000/svg"
   xmlns:xlink="http://www.w3.org/1999/xlink"
   xmlns:sodipodi="http://sodipodi.sourceforge.net/DTD/sodipodi-0.dtd"
   xmlns:inkscape="http://www.inkscape.org/namespaces/inkscape"
   version="1.1"
   width="24"
   height="24"
   id="svg4031"
   inkscape:version="0.91 r13725"
   sodipodi:docname="person.svg">
  <sodipodi:namedview
     pagecolor="#ffffff"
     bordercolor="#666666"
     borderopacity="1"
     objecttolerance="10"
     gridtolerance="10"
     guidetolerance="10"
     inkscape:pageopacity="0"
     inkscape:pageshadow="2"
     inkscape:window-width="1920"
     inkscape:window-height="1149"
     id="namedview48"
     showgrid="false"
     inkscape:zoom="11.313708"
     inkscape:cx="12.627857"
     inkscape:cy="29.401146"
     inkscape:window-x="0"
     inkscape:window-y="27"
     inkscape:window-maximized="1"
     inkscape:current-layer="svg4031">
    <inkscape:grid
       type="xygrid"
       id="grid3068" />
  </sodipodi:namedview>
  <defs
     id="defs4033">
    <linearGradient
       id="linearGradient4011">
      <stop
         id="stop4013"
         style="stop-color:#ffffff;stop-opacity:1"
         offset="0" />
      <stop
         id="stop4015"
         style="stop-color:#ffffff;stop-opacity:0.23529412"
         offset="0.507761" />
      <stop
         id="stop4017"
         style="stop-color:#ffffff;stop-opacity:0.15686275"
         offset="0.83456558" />
      <stop
         id="stop4019"
         style="stop-color:#ffffff;stop-opacity:0.39215687"
         offset="1" />
    </linearGradient>
    <linearGradient
       x1="71.204407"
       y1="6.2375584"
       x2="71.204407"
       y2="44.340794"
       id="linearGradient3012"
       xlink:href="#linearGradient4011"
       gradientUnits="userSpaceOnUse"
       gradientTransform="matrix(0.48648646,0,0,0.48648646,-22.897385,-0.3359538)" />
    <linearGradient
       id="linearGradient27416-1-2-0-1">
      <stop
         id="stop27420-2-0-8-7"
         style="stop-color:#55c1ec;stop-opacity:1"
         offset="0" />
      <stop
         id="stop27422-3-5-3-3"
         style="stop-color:#3689e6;stop-opacity:1"
         offset="1" />
    </linearGradient>
    <linearGradient
       inkscape:collect="always"
       xlink:href="#linearGradient27416-1-2-0-1"
       id="linearGradient3066"
       gradientUnits="userSpaceOnUse"
       gradientTransform="matrix(0.33056038,0,0,0.60171517,29.665902,-22.911946)"
       x1="30.271185"
       y1="10.028973"
       x2="30.271185"
       y2="55.052982" />
  </defs>
  <metadata
     id="metadata4036">
    <rdf:RDF>
      <cc:Work
         rdf:about="">
        <dc:format>image/svg+xml</dc:format>
        <dc:type
           rdf:resource="http://purl.org/dc/dcmitype/StillImage" />
        <dc:title />
      </cc:Work>
    </rdf:RDF>
  </metadata>
  <path
     inkscape:connector-curvature="0"
     style="color:#000000;display:inline;overflow:visible;visibility:visible;fill:url(#linearGradient3066);fill-opacity:1;fill-rule:nonzero;stroke:none;stroke-width:1.54645538;marker:none;enable-background:accumulate"
     id="path3029"
     d="m 22,12.001414 a 10,10 0 0 1 -19.9999998,0 10,10 0 1 1 19.9999998,0 z" />
  <path
     d="m 12,6.1863758 c -2.362473,0 -4.277635,1.8415023 -4.277635,4.1131102 0,2.271608 1.915162,4.11311 4.277635,4.11311 2.362472,0 4.277635,-1.841502 4.277635,-4.11311 C 16.277635,8.0278781 14.362472,6.1863758 12,6.1863758 Z M 10.431877,15.101543 C 8.506218,15.101543 6.840578,16.234443 6,17.898458 7.500875,19.499343 9.632436,20.5 12,20.5 c 2.367564,0 4.499125,-1.000657 6,-2.601542 -0.840579,-1.664015 -2.506218,-2.796915 -4.431877,-2.796915 l -3.136246,0 z"
     id="path3070"
     style="color:#000000;display:inline;overflow:visible;visibility:visible;opacity:0.15;fill:#000000;fill-opacity:1;fill-rule:nonzero;stroke:none;stroke-width:2;marker:none;enable-background:accumulate"
     inkscape:connector-curvature="0" />
  <path
     inkscape:connector-curvature="0"
     style="color:#000000;display:inline;overflow:visible;visibility:visible;opacity:0.07000002;fill:#000000;fill-opacity:1;fill-rule:nonzero;stroke:#000000;stroke-width:2;stroke-miterlimit:4;stroke-dasharray:none;stroke-opacity:1;marker:none;enable-background:accumulate"
     id="path3840"
     d="m 12,6.9999999 c -2.071579,0 -3.750925,1.6724995 -3.750925,3.7356321 0,2.063133 1.679346,3.735632 3.750925,3.735632 2.071578,0 3.750924,-1.672499 3.750924,-3.735632 0,-2.0631326 -1.679346,-3.7356321 -3.750924,-3.7356321 z m -1.375039,8.0969831 c -1.68855,0 -3.149097,1.028929 -3.886174,2.54023 C 8.054858,19.091177 9.923956,20 12,20 c 2.076043,0 3.945142,-0.908823 5.261213,-2.362787 -0.737077,-1.511301 -2.197624,-2.54023 -3.886175,-2.54023 l -2.750077,0 z" />
  <path
     inkscape:connector-curvature="0"
     style="color:#000000;display:inline;overflow:visible;visibility:visible;fill:#ffffff;fill-opacity:1;fill-rule:nonzero;stroke:none;stroke-width:2;marker:none;enable-background:accumulate"
     id="rect3049"
     d="m 12,5.6863758 c -2.362473,0 -4.277635,1.8415023 -4.277635,4.1131106 0,2.2716076 1.915162,4.1131096 4.277635,4.1131096 2.362472,0 4.277635,-1.841502 4.277635,-4.1131096 C 16.277635,7.5278781 14.362472,5.6863758 12,5.6863758 Z M 10.431877,14.601543 C 8.506218,14.601543 6.840578,15.734443 6,17.398458 7.500875,18.999343 9.632436,20 12,20 c 2.367564,0 4.499125,-1.000657 6,-2.601542 -0.840579,-1.664015 -2.506218,-2.796915 -4.431877,-2.796915 l -3.136246,0 z" />
  <path
     d="M 21,11.999682 C 21,16.970404 16.970266,21 12.000114,21 7.0295067,21 2.9999998,16.970359 2.9999998,11.999682 c 0,-4.9704941 4.0295069,-8.9996815 9.0001142,-8.9996815 C 16.970266,3.0000005 21,7.0291879 21,11.999682 l 0,0 z"
     id="path8655"
     style="color:#000000;display:inline;overflow:visible;visibility:visible;opacity:0.5;fill:none;stroke:url(#linearGradient3012);stroke-width:1;stroke-linecap:round;stroke-linejoin:round;stroke-miterlimit:4;stroke-dasharray:none;stroke-dashoffset:0;stroke-opacity:1;marker:none;enable-background:accumulate"
     inkscape:connector-curvature="0" />
  <path
     d="m 12.000002,1.9999996 c -5.5176553,0 -10.0000018,4.4823443 -10.0000018,9.9999994 0,5.517656 4.4823465,10.000002 10.0000018,10.000001 C 17.517655,22 22.000006,17.517655 22,11.999999 22,6.4823439 17.517655,1.9999996 12.000002,1.9999996 Z"
     id="path2555-6"
     style="color:#000000;display:inline;overflow:visible;visibility:visible;opacity:0.5;fill:#000000;fill-opacity:0;fill-rule:nonzero;stroke:#003651;stroke-width:0.99999994;stroke-linecap:round;stroke-linejoin:round;stroke-miterlimit:4;stroke-dasharray:none;stroke-dashoffset:0;stroke-opacity:1;marker:none;enable-background:accumulate"
     inkscape:connector-curvature="0" />
</svg>
