<?xml version="1.0" encoding="UTF-8" standalone="no"?>
<!-- Created with Inkscape (http://www.inkscape.org/) -->

<svg
   xmlns:dc="http://purl.org/dc/elements/1.1/"
   xmlns:cc="http://creativecommons.org/ns#"
   xmlns:rdf="http://www.w3.org/1999/02/22-rdf-syntax-ns#"
   xmlns:svg="http://www.w3.org/2000/svg"
   xmlns="http://www.w3.org/2000/svg"
   xmlns:xlink="http://www.w3.org/1999/xlink"
   xmlns:sodipodi="http://sodipodi.sourceforge.net/DTD/sodipodi-0.dtd"
   xmlns:inkscape="http://www.inkscape.org/namespaces/inkscape"
   version="1.1"
   width="22"
   height="22"
   id="svg4031"
   inkscape:version="0.91 r13725"
   sodipodi:docname="person.svg">
  <sodipodi:namedview
     pagecolor="#ffffff"
     bordercolor="#666666"
     borderopacity="1"
     objecttolerance="10"
     gridtolerance="10"
     guidetolerance="10"
     inkscape:pageopacity="0"
     inkscape:pageshadow="2"
     inkscape:window-width="1920"
     inkscape:window-height="1149"
     id="namedview48"
     showgrid="false"
     inkscape:zoom="11.313708"
     inkscape:cx="-1.7794443"
     inkscape:cy="29.224369"
     inkscape:window-x="0"
     inkscape:window-y="27"
     inkscape:window-maximized="1"
     inkscape:current-layer="svg4031">
    <inkscape:grid
       type="xygrid"
       id="grid3068" />
  </sodipodi:namedview>
  <defs
     id="defs4033">
    <linearGradient
       id="linearGradient4011">
      <stop
         id="stop4013"
         style="stop-color:#ffffff;stop-opacity:1"
         offset="0" />
      <stop
         id="stop4015"
         style="stop-color:#ffffff;stop-opacity:0.23529412"
         offset="0.507761" />
      <stop
         id="stop4017"
         style="stop-color:#ffffff;stop-opacity:0.15686275"
         offset="0.83456558" />
      <stop
         id="stop4019"
         style="stop-color:#ffffff;stop-opacity:0.39215687"
         offset="1" />
    </linearGradient>
    <linearGradient
       x1="71.204407"
       y1="6.2375584"
       x2="71.204407"
       y2="44.340794"
       id="linearGradient3012"
       xlink:href="#linearGradient4011"
       gradientUnits="userSpaceOnUse"
       gradientTransform="matrix(0.48648646,0,0,0.48648646,-23.897385,-1.3359536)" />
    <linearGradient
       id="linearGradient27416-1-2-0-1">
      <stop
         id="stop27420-2-0-8-7"
         style="stop-color:#55c1ec;stop-opacity:1"
         offset="0" />
      <stop
         id="stop27422-3-5-3-3"
         style="stop-color:#3689e6;stop-opacity:1"
         offset="1" />
    </linearGradient>
    <linearGradient
       inkscape:collect="always"
       xlink:href="#linearGradient27416-1-2-0-1"
       id="linearGradient3066"
       gradientUnits="userSpaceOnUse"
       gradientTransform="matrix(0.33056038,0,0,0.60171517,28.665902,-23.911946)"
       x1="30.271185"
       y1="10.028973"
       x2="30.271185"
       y2="55.052982" />
  </defs>
  <metadata
     id="metadata4036">
    <rdf:RDF>
      <cc:Work
         rdf:about="">
        <dc:format>image/svg+xml</dc:format>
        <dc:type
           rdf:resource="http://purl.org/dc/dcmitype/StillImage" />
        <dc:title />
      </cc:Work>
    </rdf:RDF>
  </metadata>
  <path
     inkscape:connector-curvature="0"
     style="color:#000000;display:inline;overflow:visible;visibility:visible;fill:url(#linearGradient3066);fill-opacity:1;fill-rule:nonzero;stroke:none;stroke-width:1.54645538;marker:none;enable-background:accumulate"
     id="path3029"
     d="m 21,11.001414 a 10,10 0 0 1 -19.9999999,0 10,10 0 1 1 19.9999999,0 z" />
  <path
     d="m 11,5.186376 c -2.3624731,0 -4.2776351,1.8415023 -4.2776351,4.1131102 0,2.2716078 1.915162,4.1131098 4.2776351,4.1131098 2.362472,0 4.277635,-1.841502 4.277635,-4.1131098 C 15.277635,7.0278783 13.362472,5.186376 11,5.186376 Z m -1.5681231,8.915167 c -1.925659,0 -3.591299,1.1329 -4.431877,2.796915 C 6.5008749,18.499343 8.6324359,19.5 11,19.5 c 2.367564,0 4.499125,-1.000657 6,-2.601542 -0.840579,-1.664015 -2.506218,-2.796915 -4.431877,-2.796915 l -3.1362461,0 z"
     id="path3070"
     style="color:#000000;display:inline;overflow:visible;visibility:visible;opacity:0.15;fill:#000000;fill-opacity:1;fill-rule:nonzero;stroke:none;stroke-width:2;marker:none;enable-background:accumulate"
     inkscape:connector-curvature="0" />
  <path
     inkscape:connector-curvature="0"
     style="color:#000000;display:inline;overflow:visible;visibility:visible;opacity:0.07000002;fill:#000000;fill-opacity:1;fill-rule:nonzero;stroke:#000000;stroke-width:2;stroke-miterlimit:4;stroke-dasharray:none;stroke-opacity:1;marker:none;enable-background:accumulate"
     id="path3840"
     d="m 11,6.0000001 c -2.0715791,0 -3.7509251,1.6724995 -3.7509251,3.7356321 0,2.0631328 1.679346,3.7356318 3.7509251,3.7356318 2.071578,0 3.750924,-1.672499 3.750924,-3.7356318 C 14.750924,7.6724996 13.071578,6.0000001 11,6.0000001 Z M 9.6249609,14.096983 c -1.68855,0 -3.149097,1.028929 -3.886174,2.54023 C 7.0548579,18.091177 8.9239559,19 11,19 c 2.076043,0 3.945142,-0.908823 5.261213,-2.362787 -0.737077,-1.511301 -2.197624,-2.54023 -3.886175,-2.54023 l -2.7500771,0 z" />
  <path
     inkscape:connector-curvature="0"
     style="color:#000000;display:inline;overflow:visible;visibility:visible;fill:#ffffff;fill-opacity:1;fill-rule:nonzero;stroke:none;stroke-width:2;marker:none;enable-background:accumulate"
     id="rect3049"
     d="m 11,4.686376 c -2.3624731,0 -4.2776351,1.8415023 -4.2776351,4.1131106 0,2.2716074 1.915162,4.1131094 4.2776351,4.1131094 2.362472,0 4.277635,-1.841502 4.277635,-4.1131094 C 15.277635,6.5278783 13.362472,4.686376 11,4.686376 Z m -1.5681231,8.915167 c -1.925659,0 -3.591299,1.1329 -4.431877,2.796915 C 6.5008749,17.999343 8.6324359,19 11,19 c 2.367564,0 4.499125,-1.000657 6,-2.601542 -0.840579,-1.664015 -2.506218,-2.796915 -4.431877,-2.796915 l -3.1362461,0 z" />
  <path
     d="M 20,10.999682 C 20,15.970404 15.970266,20 11.000114,20 6.0295066,20 1.9999997,15.970359 1.9999997,10.999682 c 0,-4.9704939 4.0295069,-8.9996813 9.0001143,-8.9996813 C 15.970266,2.0000007 20,6.0291881 20,10.999682 l 0,0 z"
     id="path8655"
     style="color:#000000;display:inline;overflow:visible;visibility:visible;opacity:0.5;fill:none;stroke:url(#linearGradient3012);stroke-width:1;stroke-linecap:round;stroke-linejoin:round;stroke-miterlimit:4;stroke-dasharray:none;stroke-dashoffset:0;stroke-opacity:1;marker:none;enable-background:accumulate"
     inkscape:connector-curvature="0" />
  <path
     d="m 11.000002,0.9999998 c -5.5176554,0 -10.0000019,4.4823443 -10.0000019,9.9999992 0,5.517656 4.4823465,10.000002 10.0000019,10.000001 C 16.517655,21 21.000006,16.517655 21,10.999999 21,5.4823441 16.517655,0.9999998 11.000002,0.9999998 Z"
     id="path2555-6"
     style="color:#000000;display:inline;overflow:visible;visibility:visible;opacity:0.5;fill:#000000;fill-opacity:0;fill-rule:nonzero;stroke:#003651;stroke-width:0.99999994;stroke-linecap:round;stroke-linejoin:round;stroke-miterlimit:4;stroke-dasharray:none;stroke-dashoffset:0;stroke-opacity:1;marker:none;enable-background:accumulate"
     inkscape:connector-curvature="0" />
</svg>
